<svg width="24" height="24" viewBox="0 0 24 24" fill="none" xmlns="http://www.w3.org/2000/svg">
  <path d="M10.5 4C6.91015 4 4 6.91015 4 10.5C4 14.0899 6.91015 17 10.5 17C12.0659 17 13.5024 16.446 14.6248 15.5237L19.0503 19.9497C19.2456 20.1449 19.5622 20.1449 19.7574 19.9497L19.9497 19.7574C20.1449 19.5622 20.1449 19.2456 19.9497 19.0503L15.5237 14.6248C16.446 13.5024 17 12.0659 17 10.5C17 6.91015 14.0899 4 10.5 4ZM10.5 5.5C13.2614 5.5 15.5 7.73858 15.5 10.5C15.5 13.2614 13.2614 15.5 10.5 15.5C7.73858 15.5 5.5 13.2614 5.5 10.5C5.5 7.73858 7.73858 5.5 10.5 5.5Z" fill="currentColor"/>
</svg>